<svg
  width="30"
  height="30"
  viewBox="0 0 64 60"
  fill="none"
  xmlns="http://www.w3.org/2000/svg"
>
  <path
    d="M64 40C64 43.625 63.1042 46.9688 61.3125 50.0312C59.5208 53.0938 57.0938 55.5208 54.0312 57.3125C50.9688 59.1042 47.625 60 44 60C39.5833 60 35.5833 58.6667 32 56C28.4167 58.6667 24.4167 60 20 60C16.375 60 13.0312 59.1042 9.96875 57.3125C6.90625 55.5208 4.47917 53.0938 2.6875 50.0312C0.895833 46.9688 0 43.625 0 40C0 35.9583 1.11458 32.2812 3.34375 28.9688C5.57292 25.6562 8.47917 23.2083 12.0625 21.625C12.0208 20.9583 12 20.4167 12 20C12 16.375 12.8958 13.0312 14.6875 9.96875C16.4792 6.90625 18.9062 4.47917 21.9688 2.6875C25.0312 0.895833 28.375 0 32 0C35.625 0 38.9688 0.895833 42.0312 2.6875C45.0938 4.47917 47.5208 6.90625 49.3125 9.96875C51.1042 13.0312 52 16.375 52 20C52 20.0833 51.9583 20.625 51.875 21.625H51.9375C55.5208 23.2083 58.4271 25.6562 60.6562 28.9688C62.8854 32.2812 64 35.9583 64 40ZM4 40C4 44.4167 5.5625 48.1875 8.6875 51.3125C11.8125 54.4375 15.5833 56 20 56C23.2917 56 26.2917 55.0625 29 53.1875C25.6667 49.3958 24 45 24 40C24 39.7083 24.0417 39.1667 24.125 38.375H24.0625C26.6042 39.4583 29.25 40 32 40C34.75 40 37.375 39.4583 39.875 38.375C39.6667 35.4583 38.8646 32.7604 37.4688 30.2812C36.0729 27.8021 34.25 25.7292 32 24.0625C29.75 25.7292 27.9271 27.8125 26.5312 30.3125C25.1354 32.8125 24.3125 35.5 24.0625 38.375V38.3125C21.3958 37.1458 19.0729 35.4688 17.0938 33.2812C15.1146 31.0938 13.7083 28.5833 12.875 25.75C10.2083 27.0833 8.0625 29.0208 6.4375 31.5625C4.8125 34.1042 4 36.9167 4 40ZM32 4C27.5833 4 23.8125 5.5625 20.6875 8.6875C17.5625 11.8125 16 15.5833 16 20V20.1875L16.0625 20.375C17.3958 20.125 18.7083 20 20 20C24.4583 20 28.4583 21.3333 32 24C35.5417 21.3333 39.5417 20 44 20C45.3333 20 46.6667 20.125 48 20.375V20C48 15.5833 46.4375 11.8125 43.3125 8.6875C40.1875 5.5625 36.4167 4 32 4ZM51.125 25.75C50.2917 28.5833 48.8854 31.1042 46.9062 33.3125C44.9271 35.5208 42.6042 37.2083 39.9375 38.375H39.875C39.9583 39.1667 40 39.7083 40 40C40 45 38.3333 49.3958 35 53.1875C37.7083 55.0625 40.7083 56 44 56C48.4167 56 52.1875 54.4375 55.3125 51.3125C58.4375 48.1875 60 44.4167 60 40C60 36.9167 59.1875 34.1042 57.5625 31.5625C55.9375 29.0208 53.7917 27.0833 51.125 25.75Z"
    fill="#DCD7C9"
  />
</svg>
